<svg width="6" height="6" viewBox="0 0 6 6" fill="none" xmlns="http://www.w3.org/2000/svg">
<path fill-rule="evenodd" clip-rule="evenodd" d="M1.13447 3.74434C1.33573 3.96396 1.60151 4.08919 1.87622 4.11761C1.88061 4.39375 1.98223 4.66942 2.18349 4.88904C2.62006 5.36542 3.36015 5.3977 3.83653 4.96113C4.07634 4.74136 4.20361 4.44468 4.21518 4.14344C4.51629 4.15813 4.82293 4.05718 5.06274 3.83741C5.53912 3.40084 5.5714 2.66075 5.13483 2.18437C4.93357 1.96475 4.66779 1.83952 4.39308 1.8111C4.38869 1.53496 4.28707 1.25929 4.0858 1.03967C3.64924 0.563291 2.90915 0.531014 2.43277 0.96758C2.19296 1.18735 2.06569 1.48404 2.05412 1.78528C1.75301 1.77058 1.44637 1.87153 1.20656 2.0913C0.730177 2.52787 0.6979 3.26796 1.13447 3.74434Z" fill="#DAA8EF"/>
</svg>
