<svg width="10" height="10" viewBox="0 0 10 10" fill="none" xmlns="http://www.w3.org/2000/svg">
<path fill-rule="evenodd" clip-rule="evenodd" d="M5.64574 5.19751C6.97104 5.38061 8.35168 4.7479 9.08083 3.49543C7.72892 2.7084 6.03927 2.99485 4.96912 4.08929L5.26359 3.58347C5.81033 2.64432 5.5103 1.44865 4.59406 0.915246L3.34943 0.19067L2.60674 1.46641C2.06001 2.40556 2.36003 3.60123 3.27628 4.13463L3.44158 4.23087C2.11628 4.04777 0.735633 4.68048 0.00648935 5.93295C1.35839 6.71998 3.04805 6.43353 4.1182 5.33909L3.82372 5.84492C3.27699 6.78406 3.57701 7.97973 4.49326 8.51314L5.73788 9.23771L6.48057 7.96197C7.02731 7.02282 6.72728 5.82715 5.81104 5.29375L5.64574 5.19751Z" fill="#3057A7"/>
</svg>
