<svg width="28" height="28" viewBox="0 0 28 28" fill="none" xmlns="http://www.w3.org/2000/svg">
<path fill-rule="evenodd" clip-rule="evenodd" d="M0 8.18334C0 10.2669 0.778707 12.1687 2.06097 13.6134C0.778707 15.0581 0 16.9598 0 19.0434C0 23.5629 3.66381 27.2267 8.18334 27.2267C10.4585 27.2267 12.5168 26.2983 14 24.7995C15.4832 26.2983 17.5415 27.2267 19.8167 27.2267C24.3362 27.2267 28 23.5629 28 19.0434C28 16.9598 27.2213 15.0581 25.939 13.6134C27.2213 12.1687 28 10.2669 28 8.18334C28 3.66381 24.3362 0 19.8167 0C17.5415 0 15.4832 0.928467 14 2.42717C12.5168 0.928467 10.4585 0 8.18334 0C3.66381 0 0 3.66381 0 8.18334Z" fill="#DAA8EF"/>
</svg>
